<svg xmlns="http://www.w3.org/2000/svg" xmlns:xlink="http://www.w3.org/1999/xlink" width="96" height="89" viewBox="0 0 96 89" class="w-8 h-auto max-w-[120px]">
  <defs>
    <clipPath id="clip-path">
      <rect id="admin-svg" data-name="Rectángulo 1176" width="96" height="89" transform="translate(0.417 0)"/>
    </clipPath>
  </defs>
  <g id="admin-svg" data-name="Icono administrar" transform="translate(-1794.417 -1003)">
    <g id="Grupo_12" data-name="Grupo 12" transform="translate(1794 1003)">
      <g id="Grupo_11" data-name="Grupo 11" clip-path="url(#clip-path)">
        <path class="color2" id="Trazado_992" data-name="Trazado 992" d="M48.208,48.208A3.719,3.719,0,0,0,51.917,44.5V3.708a3.708,3.708,0,0,0-7.417,0V44.5a3.719,3.719,0,0,0,3.708,3.708m0,7.417A12.978,12.978,0,0,0,44.5,81.039v4.252a3.708,3.708,0,0,0,7.417,0V81.039a12.978,12.978,0,0,0-3.708-25.414M83.438,7.417a3.708,3.708,0,1,0-3.708-3.708,3.719,3.719,0,0,0,3.708,3.708m0,7.417a12.978,12.978,0,0,0-3.708,25.414V85.292a3.708,3.708,0,0,0,7.417,0V40.248a12.978,12.978,0,0,0-3.708-25.414M12.979,18.542a3.719,3.719,0,0,0,3.708-3.708V3.708a3.708,3.708,0,1,0-7.417,0V14.833a3.719,3.719,0,0,0,3.708,3.708m0,7.417A12.978,12.978,0,0,0,9.271,51.373V85.292a3.708,3.708,0,0,0,7.417,0V51.373a12.978,12.978,0,0,0-3.708-25.414"/>
      </g>
    </g>
  </g>
</svg>
