<svg xmlns="http://www.w3.org/2000/svg" xmlns:xlink="http://www.w3.org/1999/xlink" width="122" height="121" viewBox="0 0 122 121" class="w-8 h-auto max-w-[120px]">
  <defs>
    <filter id="Rectángulo_1180" x="0" y="0" width="122" height="121" filterUnits="userSpaceOnUse">
      <feOffset dy="3" input="SourceAlpha"/>
      <feGaussianBlur stdDeviation="3" result="blur"/>
      <feFlood flood-opacity="0.161"/>
      <feComposite operator="in" in2="blur"/>
      <feComposite in="SourceGraphic"/>
    </filter>
  </defs>
  <g id="icono_cerrar" data-name="icono cerrar" transform="translate(-920 -323)">
    <g transform="matrix(1, 0, 0, 1, 920, 323)" filter="url(#Rectángulo_1180)">
      <rect id="Rectángulo_1180-2" data-name="Rectángulo 1180" width="104" height="103" rx="51.5" transform="translate(9 6)" fill="#ed4545"/>
    </g>
    <g id="Grupo_17" data-name="Grupo 17" transform="translate(1 -180)">
      <path id="Trazado_996" data-name="Trazado 996" d="M25.99,335.065a2.491,2.491,0,0,1-1.767-.732L6.733,316.841a2.5,2.5,0,0,1,0-3.533l17.491-17.491a2.5,2.5,0,0,1,3.533,3.533L12.032,315.074,27.757,330.8a2.5,2.5,0,0,1-1.767,4.265" transform="translate(970.755 245.316)" fill="#fff"/>
      <path id="Trazado_996_-_Contorno" data-name="Trazado 996 - Contorno" d="M25.99,336.565a3.972,3.972,0,0,1-2.827-1.172L5.672,317.9a4,4,0,0,1,0-5.654l17.491-17.491a4,4,0,1,1,5.655,5.654L14.154,315.074l14.664,14.664a4,4,0,0,1-2.827,6.826Zm0-39.981a.992.992,0,0,0-.706.293L7.793,314.369a1,1,0,0,0,0,1.412l17.491,17.491A1,1,0,1,0,26.7,331.86L9.911,315.074,26.7,298.289a1,1,0,0,0-.706-1.705Z" transform="translate(970.755 245.316)" fill="#fff"/>
      <path id="Trazado_997" data-name="Trazado 997" d="M25.99,335.065a2.491,2.491,0,0,1-1.767-.732L6.733,316.841a2.5,2.5,0,0,1,0-3.533l17.491-17.491a2.5,2.5,0,0,1,3.533,3.533L12.032,315.074,27.757,330.8a2.5,2.5,0,0,1-1.767,4.265" transform="translate(989.245 875.465) rotate(180)" fill="#fff"/>
      <path id="Trazado_997_-_Contorno" data-name="Trazado 997 - Contorno" d="M25.99,336.565a3.972,3.972,0,0,1-2.827-1.172L5.672,317.9a4,4,0,0,1,0-5.654l17.491-17.491a4,4,0,1,1,5.655,5.654L14.154,315.074l14.664,14.664a4,4,0,0,1-2.827,6.826Zm0-39.981a.992.992,0,0,0-.706.293L7.793,314.369a1,1,0,0,0,0,1.412l17.491,17.491A1,1,0,1,0,26.7,331.86L9.911,315.074,26.7,298.289a1,1,0,0,0-.706-1.705Z" transform="translate(989.245 875.465) rotate(180)" fill="#fff"/>
    </g>
  </g>
</svg>
