
<?xml version="1.0" encoding="utf-8"?>
<!-- Generator: Adobe Illustrator 28.3.0, SVG Export Plug-In . SVG Version: 6.00 Build 0)  -->
<svg version="1.1" id="Capa_1" xmlns="http://www.w3.org/2000/svg" xmlns:xlink="http://www.w3.org/1999/xlink" x="0px" y="0px"
	 viewBox="0 0 595.28 355.29" style="enable-background:new 0 0 595.28 355.29;" class="w-auto h-16" xml:space="preserve">
<g>
	<path class="color2" d="M69.8,182.69h10.09l19.78-70.34c0.35-0.44,0.7-0.83,1.05-1.18c0.35-0.35,0.96-0.74,1.83-1.18h19.26
		c1.31,0.35,2.27,1.22,2.88,2.62l34.45,82c0,0.61-0.31,1.22-0.92,1.83h-11.79c-0.44,0-0.96-0.13-1.57-0.39
		c-0.61-0.26-1.05-0.7-1.31-1.31l-30.13-71h-1.44L92.07,195c-0.44,0.96-1.22,1.44-2.36,1.44H69.8c-0.61,0-1.22-0.17-1.83-0.52
		c-0.61-0.35-0.92-0.79-0.92-1.31v-10.09c0-0.52,0.28-0.96,0.85-1.31C68.47,182.87,69.1,182.69,69.8,182.69z"/>
	<path class="color2" d="M184.53,159.63l0.13-1.57c0-0.35,0.22-0.59,0.65-0.72c0.44-0.13,0.74-0.24,0.92-0.33h14.54
		c1.4,0,2.77-0.28,4.13-0.85c1.35-0.57,2.57-1.33,3.67-2.29c1.09-0.96,1.96-2.05,2.62-3.27c0.65-1.22,0.98-2.49,0.98-3.8v-12.84
		c-0.09-1.05-0.44-2.16-1.05-3.34c-0.61-1.18-1.42-2.27-2.42-3.27c-1-1-2.18-1.85-3.54-2.56c-1.35-0.7-2.82-1.05-4.39-1.05h-27.38
		c-0.44,0-0.85,0.15-1.24,0.46c-0.39,0.31-0.68,0.59-0.85,0.85v68.64c0,0.61-0.18,1.22-0.52,1.83c-0.35,0.61-0.79,0.92-1.31,0.92
		h-10.09c-0.52,0-0.96-0.28-1.31-0.85c-0.35-0.57-0.52-1.2-0.52-1.9v-80.56c0-0.7,0.24-1.39,0.72-2.1c0.48-0.7,0.98-1.05,1.51-1.05
		h45.58c2.36,0,4.67,0.52,6.94,1.57c2.27,1.05,4.34,2.42,6.22,4.13c1.88,1.7,3.47,3.71,4.78,6.03c1.31,2.31,2.18,4.69,2.62,7.14
		v19.52c0,2.62-0.59,5.17-1.77,7.66c-1.18,2.49-2.68,4.74-4.52,6.75c-1.83,2.01-3.89,3.69-6.16,5.04c-2.27,1.35-4.5,2.21-6.68,2.55
		l13.49,22.79c0.35,0.61,0.52,1.22,0.52,1.83c0,0.7-0.22,1.18-0.66,1.44h-12.57c-1.14,0-1.92-0.48-2.36-1.44l-20.57-34.84
		C184.57,160.07,184.53,159.9,184.53,159.63z"/>
	<circle class="color2" cx="147.16" cy="142.32" r="5.94"/>
	<rect x="235.8" y="98.3" class="color2" width="4.16" height="108.63"/>
	<g>
		<path class="color2" d="M293.27,191.06c-6.9,2.68-13.47,4.02-19.72,4.02c-1.3,0-3.27-0.12-5.9-0.37c-2.64-0.24-5.44-1.16-8.4-2.74
			c-2.96-1.58-5.36-4.1-7.18-7.55c-1.83-3.45-2.74-7.73-2.74-12.84v-39.07c0-6.17,0.87-10.83,2.62-14c1.74-3.16,4.4-5.84,7.97-8.03
			c3.65-2.03,7.99-3.04,13.02-3.04c6.25,0,12.01,1.34,17.28,4.02l-1.95,4.62c-4.63-1.7-9.01-2.56-13.14-2.56
			c-12.66,0-18.99,5.96-18.99,17.89v39.92c0,10.63,5.15,16.43,15.46,17.4c0.81,0.16,1.66,0.24,2.56,0.24
			c4.87,0,10.75-1.22,17.65-3.65L293.27,191.06z"/>
		<path class="color2" d="M354.37,193.86h-7.3l-9.74-29.82h-27.75l-9.49,29.82h-7.18l27.26-85.2h6.45L354.37,193.86z M335.51,157.35
			l-12.17-38.1l-11.81,38.1H335.51z"/>
		<path class="color2" d="M384.79,193.86h-25.32v-85.32h22.88c9.17,0,16.17,2.52,20.99,7.55c4.83,5.03,7.24,11.73,7.24,20.08v33.35
			C410.59,185.75,401.99,193.86,384.79,193.86z M403.78,170.74v-35.78c0-6.82-2.03-11.89-6.09-15.21
			c-4.06-3.33-8.76-4.99-14.12-4.99h-17.28v73.03h16.55C396.8,187.78,403.78,182.1,403.78,170.74z"/>
		<path class="color2" d="M443.68,193.86h-25.32v-85.32h22.88c9.17,0,16.17,2.52,21,7.55c4.83,5.03,7.24,11.73,7.24,20.08v33.35
			C469.48,185.75,460.88,193.86,443.68,193.86z M462.67,170.74v-35.78c0-6.82-2.03-11.89-6.08-15.21
			c-4.06-3.33-8.76-4.99-14.12-4.99h-17.28v73.03h16.55C455.69,187.78,462.67,182.1,462.67,170.74z"/>
		<path class="color2" d="M515.45,194.71l-1.58-4.5c4.95-1.87,7.42-6.82,7.42-14.85v-17.28c-2.19,1.95-5.11,3.43-8.76,4.44
			c-3.65,1.01-7.14,1.52-10.47,1.52c-8.6,0-15.4-2.13-20.39-6.39c-4.99-4.26-7.49-10.57-7.49-18.93v-30.06H481v31.28
			c0,5.68,1.95,10,5.84,12.96c3.89,2.96,8.6,4.44,14.12,4.44c5.52,0,10.06-1.01,13.63-3.04c3.57-2.03,5.8-5.07,6.69-9.13v-36.51
			h6.94v66.21c0,5.92-1.12,10.57-3.35,13.94C522.65,192.18,519.5,194.14,515.45,194.71z"/>
	</g>
</g>
<g>
	<path class="color2" d="M175.17,275.73l-3.92-5.66h-0.23h-4.1v5.66h-4.71v-20.33h8.8c5.43,0,8.83,2.82,8.83,7.38c0,3.05-1.54,5.29-4.18,6.42
		l4.56,6.54H175.17z M170.76,259.23h-3.83v7.09h3.83c2.88,0,4.33-1.34,4.33-3.54C175.09,260.53,173.63,259.23,170.76,259.23z"/>
	<path class="color2" d="M198.47,269.19h-11.82c0.44,1.95,2.09,3.14,4.47,3.14c1.66,0,2.85-0.49,3.92-1.51l2.41,2.61
		c-1.45,1.66-3.63,2.53-6.45,2.53c-5.4,0-8.92-3.4-8.92-8.05c0-4.68,3.57-8.05,8.34-8.05c4.59,0,8.13,3.08,8.13,8.1
		C198.56,268.32,198.5,268.81,198.47,269.19z M186.59,266.55h7.7c-0.32-1.98-1.8-3.25-3.83-3.25
		C188.39,263.29,186.91,264.54,186.59,266.55z"/>
	<path class="color2" d="M214.97,266.81v8.92h-4.24v-1.95c-0.84,1.42-2.47,2.18-4.76,2.18c-3.66,0-5.84-2.03-5.84-4.73c0-2.76,1.95-4.68,6.71-4.68
		h3.6c0-1.95-1.16-3.08-3.6-3.08c-1.66,0-3.37,0.55-4.5,1.45l-1.63-3.17c1.71-1.22,4.24-1.89,6.74-1.89
		C212.21,259.87,214.97,262.07,214.97,266.81z M210.43,270.79v-1.6h-3.11c-2.12,0-2.79,0.78-2.79,1.83c0,1.13,0.96,1.89,2.56,1.89
		C208.61,272.91,209.91,272.21,210.43,270.79z"/>
	<path class="color2" d="M219.06,254.17h4.53v21.55h-4.53V254.17z"/>
	<path class="color2" d="M227.8,254.17h4.53v21.55h-4.53V254.17z"/>
	<path class="color2" d="M252.06,260.1L245,276.68c-1.51,3.78-3.66,4.91-6.48,4.91c-1.6,0-3.34-0.52-4.36-1.42l1.66-3.22
		c0.7,0.61,1.66,0.99,2.56,0.99c1.25,0,1.95-0.55,2.56-1.95l0.06-0.15l-6.77-15.74h4.68l4.39,10.6l4.42-10.6H252.06z"/>
	<path class="color2" d="M261.58,255.39c0-1.42,1.13-2.53,2.82-2.53c1.68,0,2.82,1.05,2.82,2.44c0,1.51-1.13,2.61-2.82,2.61
		C262.72,257.92,261.58,256.82,261.58,255.39z M262.14,260.1h4.53v15.63h-4.53V260.1z"/>
	<path class="color2" d="M269.37,274.27l1.51-3.25c1.39,0.9,3.51,1.51,5.43,1.51c2.09,0,2.88-0.55,2.88-1.42c0-2.56-9.44,0.06-9.44-6.19
		c0-2.96,2.67-5.05,7.23-5.05c2.15,0,4.53,0.49,6.01,1.37l-1.51,3.22c-1.54-0.87-3.08-1.16-4.5-1.16c-2.03,0-2.9,0.64-2.9,1.45
		c0,2.67,9.44,0.09,9.44,6.24c0,2.9-2.7,4.97-7.38,4.97C273.49,275.96,270.82,275.23,269.37,274.27z"/>
	<path class="color2" d="M308.35,266.81v8.92h-4.24v-1.95c-0.84,1.42-2.47,2.18-4.76,2.18c-3.66,0-5.84-2.03-5.84-4.73c0-2.76,1.95-4.68,6.71-4.68
		h3.6c0-1.95-1.16-3.08-3.6-3.08c-1.66,0-3.37,0.55-4.5,1.45l-1.63-3.17c1.71-1.22,4.24-1.89,6.74-1.89
		C305.59,259.87,308.35,262.07,308.35,266.81z M303.81,270.79v-1.6h-3.11c-2.12,0-2.79,0.78-2.79,1.83c0,1.13,0.96,1.89,2.56,1.89
		C301.98,272.91,303.29,272.21,303.81,270.79z"/>
	<path class="color2" d="M328.42,266.78v8.95h-4.53v-8.25c0-2.53-1.16-3.69-3.17-3.69c-2.18,0-3.75,1.34-3.75,4.21v7.73h-4.53V260.1h4.33v1.83
		c1.22-1.34,3.05-2.06,5.17-2.06C325.63,259.87,328.42,262.02,328.42,266.78z"/>
	<path class="color2" d="M340.18,255.39c0-1.42,1.13-2.53,2.82-2.53c1.68,0,2.82,1.05,2.82,2.44c0,1.51-1.13,2.61-2.82,2.61
		C341.31,257.92,340.18,256.82,340.18,255.39z M340.73,260.1h4.53v15.63h-4.53V260.1z"/>
	<path class="color2" d="M349.47,254.17H354v21.55h-4.53V254.17z"/>
	<path class="color2" d="M358.22,254.17h4.53v21.55h-4.53V254.17z"/>
	<path class="color2" d="M382.7,260.1v15.63h-4.3v-1.86c-1.19,1.37-2.93,2.09-4.85,2.09c-3.92,0-6.68-2.21-6.68-7.03v-8.83h4.53v8.16
		c0,2.61,1.16,3.78,3.17,3.78c2.09,0,3.6-1.34,3.6-4.21v-7.73H382.7z"/>
	<path class="color2" d="M385.4,274.27l1.51-3.25c1.39,0.9,3.51,1.51,5.43,1.51c2.09,0,2.88-0.55,2.88-1.42c0-2.56-9.44,0.06-9.44-6.19
		c0-2.96,2.67-5.05,7.23-5.05c2.15,0,4.53,0.49,6.01,1.37l-1.51,3.22c-1.54-0.87-3.08-1.16-4.5-1.16c-2.03,0-2.9,0.64-2.9,1.45
		c0,2.67,9.44,0.09,9.44,6.24c0,2.9-2.7,4.97-7.38,4.97C389.53,275.96,386.85,275.23,385.4,274.27z"/>
	<path class="color2" d="M401.78,255.39c0-1.42,1.13-2.53,2.82-2.53s2.82,1.05,2.82,2.44c0,1.51-1.13,2.61-2.82,2.61S401.78,256.82,401.78,255.39z
		 M402.34,260.1h4.53v15.63h-4.53V260.1z"/>
	<path class="color2" d="M409.92,267.91c0-4.71,3.63-8.05,8.6-8.05c4.97,0,8.57,3.34,8.57,8.05c0,4.71-3.6,8.05-8.57,8.05
		C413.55,275.96,409.92,272.62,409.92,267.91z M422.49,267.91c0-2.7-1.71-4.33-3.98-4.33c-2.27,0-4.01,1.63-4.01,4.33
		c0,2.7,1.74,4.33,4.01,4.33C420.78,272.24,422.49,270.61,422.49,267.91z"/>
	<path class="color2" d="M446.08,266.78v8.95h-4.53v-8.25c0-2.53-1.16-3.69-3.17-3.69c-2.18,0-3.75,1.34-3.75,4.21v7.73h-4.53V260.1h4.33v1.83
		c1.22-1.34,3.05-2.06,5.17-2.06C443.29,259.87,446.08,262.02,446.08,266.78z"/>
	<path class="color2" d="M449.07,273.11c0-1.68,1.25-2.79,2.82-2.79c1.57,0,2.82,1.1,2.82,2.79c0,1.66-1.25,2.85-2.82,2.85
		C450.32,275.96,449.07,274.77,449.07,273.11z"/>
	<path class="color2" d="M456.68,273.11c0-1.68,1.25-2.79,2.82-2.79c1.57,0,2.82,1.1,2.82,2.79c0,1.66-1.25,2.85-2.82,2.85
		C457.93,275.96,456.68,274.77,456.68,273.11z"/>
	<path class="color2" d="M464.29,273.11c0-1.68,1.25-2.79,2.82-2.79c1.57,0,2.82,1.1,2.82,2.79c0,1.66-1.25,2.85-2.82,2.85
		C465.54,275.96,464.29,274.77,464.29,273.11z"/>
</g>
</svg>
