<svg xmlns="http://www.w3.org/2000/svg" xmlns:xlink="http://www.w3.org/1999/xlink" viewBox="0 0 318.142 156.902" class="w-auto h-16">
  <g>
    <path class="color2" d="M1.9,351.225H8.856L22.5,302.7a9.811,9.811,0,0,1,.723-.813,5.119,5.119,0,0,1,1.265-.813H37.772a2.963,2.963,0,0,1,1.988,1.807l23.766,56.568a1.823,1.823,0,0,1-.632,1.265H54.761a2.835,2.835,0,0,1-1.084-.271,1.658,1.658,0,0,1-.9-.9L31.989,310.561H31L17.259,359.718a1.636,1.636,0,0,1-1.627.994H1.9a2.524,2.524,0,0,1-1.265-.361,1.046,1.046,0,0,1-.632-.9v-6.958a1.049,1.049,0,0,1,.588-.9,2.454,2.454,0,0,1,1.31-.361" transform="translate(0 -246.37)" fill="#000000"/>
    <path class="color2" d="M362.2,335.32l.091-1.084c0-.24.15-.407.451-.5a4.469,4.469,0,0,0,.633-.226h10.03a7.292,7.292,0,0,0,2.846-.587,9.155,9.155,0,0,0,2.531-1.582,8.074,8.074,0,0,0,1.807-2.259,5.487,5.487,0,0,0,.678-2.621v-8.856a6.184,6.184,0,0,0-.723-2.3,9.175,9.175,0,0,0-1.672-2.259,9.8,9.8,0,0,0-2.44-1.763,6.514,6.514,0,0,0-3.027-.722H354.521a1.378,1.378,0,0,0-.859.316,2.69,2.69,0,0,0-.588.588v47.351a2.538,2.538,0,0,1-.361,1.265,1.047,1.047,0,0,1-.9.632h-6.958a1.049,1.049,0,0,1-.9-.588,2.443,2.443,0,0,1-.361-1.31V303.241a2.541,2.541,0,0,1,.5-1.446,1.347,1.347,0,0,1,1.04-.723H376.57a11.333,11.333,0,0,1,4.789,1.084A16.933,16.933,0,0,1,385.651,305a16.628,16.628,0,0,1,3.3,4.157,15.5,15.5,0,0,1,1.807,4.925v13.464a12.22,12.22,0,0,1-1.22,5.286,18.917,18.917,0,0,1-7.365,8.133,13.04,13.04,0,0,1-4.608,1.762l9.307,15.724a2.538,2.538,0,0,1,.362,1.265,1.062,1.062,0,0,1-.452.994h-8.675a1.632,1.632,0,0,1-1.627-.994l-14.187-24.036a.518.518,0,0,1-.091-.362" transform="translate(-281.16 -246.37)" fill="#000000"/>
    <path class="color2" d="M289.827,405.383a4.095,4.095,0,1,1-4.095-4.095,4.095,4.095,0,0,1,4.095,4.095" transform="translate(-230.467 -328.377)" fill="#000000"/>
    <rect class="color2" transform="translate(116.412 46.636)" fill="#000000"/>
    <path class="color2" d="M722.412,349.1a37.578,37.578,0,0,1-13.6,2.771q-1.344,0-4.072-.252a15.383,15.383,0,0,1-5.794-1.889,12.068,12.068,0,0,1-4.954-5.206,18.771,18.771,0,0,1-1.889-8.858V308.712q0-6.38,1.805-9.656a15.08,15.08,0,0,1,5.5-5.541,18.227,18.227,0,0,1,8.984-2.1,25.957,25.957,0,0,1,11.923,2.771l-1.344,3.19a26.266,26.266,0,0,0-9.068-1.763q-13.1,0-13.1,12.343V335.5q0,11,10.664,12.007a8.9,8.9,0,0,0,1.763.168,37.716,37.716,0,0,0,12.175-2.519Z" transform="translate(-566.352 -238.467)" fill="#000000"/>
    <path class="color2" d="M899.943,354.814H894.9l-6.717-20.571H869.044l-6.549,20.571h-4.954l18.808-58.775h4.45Zm-13.014-25.189-8.4-26.281-8.144,26.281Z" transform="translate(-701.733 -242.251)" fill="#000000"/>
    <path class="color2" d="M1127.746,354.433h-17.464V295.574h15.786q9.487,0,14.484,5.206t5,13.854v23.006q0,16.794-17.8,16.792m13.1-15.953V313.795q0-7.053-4.2-10.5a14.91,14.91,0,0,0-9.739-3.443h-11.923v50.378H1126.4q14.44,0,14.442-11.755" transform="translate(-908.553 -241.871)" fill="#000000"/>
    <path class="color2" d="M1351.339,354.433h-17.464V295.574h15.786q9.487,0,14.483,5.206t5,13.854v23.006q0,16.794-17.8,16.792m13.1-15.953V313.795q0-7.053-4.2-10.5a14.911,14.911,0,0,0-9.74-3.443h-11.923v50.378H1350q14.44,0,14.442-11.755" transform="translate(-1091.521 -241.871)" fill="#000000"/>
    <path class="color2" d="M1574.281,355.4l-1.092-3.106q5.121-1.931,5.122-10.243V330.128a15,15,0,0,1-6.045,3.065,26.956,26.956,0,0,1-7.22,1.049q-8.9,0-14.065-4.408t-5.164-13.057V296.039h4.7v21.579q0,5.878,4.03,8.942a15.612,15.612,0,0,0,9.739,3.065,18.857,18.857,0,0,0,9.4-2.1,9.209,9.209,0,0,0,4.618-6.3V296.039h4.786v45.676q0,6.13-2.308,9.614a8.957,8.957,0,0,1-6.508,4.072" transform="translate(-1264.955 -242.251)" fill="#000000"/>
    <path class="color2" d="M396.279,25.677V6.374h8.355a10.855,10.855,0,0,1,4.467.841A6.544,6.544,0,0,1,412,9.628a6.739,6.739,0,0,1,1.02,3.75A6.687,6.687,0,0,1,412,17.1a6.543,6.543,0,0,1-2.9,2.413,10.852,10.852,0,0,1-4.467.841h-5.874l1.986-2.013v7.335Zm4.467-6.839-1.986-2.123h5.626a4.621,4.621,0,0,0,3.089-.882,3.073,3.073,0,0,0,1.02-2.454,3.107,3.107,0,0,0-1.02-2.482,4.623,4.623,0,0,0-3.089-.882h-5.626l1.986-2.123Z" transform="translate(-324.278 -5.216)" fill="#000000"/>
    <path class="color2" d="M506.13,45.024a8.692,8.692,0,0,1-4.205-.993,7.554,7.554,0,0,1-2.9-2.716,7.854,7.854,0,0,1,0-7.887,7.458,7.458,0,0,1,2.9-2.7,9.492,9.492,0,0,1,8.4,0,7.371,7.371,0,0,1,2.9,2.689,7.544,7.544,0,0,1-2.9,10.617,8.714,8.714,0,0,1-4.191.993m0-3.53a3.774,3.774,0,0,0,1.93-.5,3.534,3.534,0,0,0,1.351-1.42,5.12,5.12,0,0,0,0-4.4,3.559,3.559,0,0,0-1.351-1.406,4,4,0,0,0-3.861,0,3.652,3.652,0,0,0-1.365,1.406,4.995,4.995,0,0,0,0,4.4A3.624,3.624,0,0,0,504.2,41a3.773,3.773,0,0,0,1.93.5" transform="translate(-407.491 -24.342)" fill="#000000"/>
    <path class="color2" d="M595.747,45.8,590.4,30.962h4.054l4.44,12.768h-1.93l4.633-12.768h3.64l4.495,12.768H607.8l4.578-12.768h3.805L610.8,45.8H606.64L602.7,34.85h1.269L599.884,45.8Z" transform="translate(-483.127 -25.336)" fill="#000000"/>
    <path class="color2" d="M743.5,45.024a9.548,9.548,0,0,1-4.453-.993,7.314,7.314,0,0,1-2.965-2.716,7.409,7.409,0,0,1-1.048-3.929,7.543,7.543,0,0,1,1.034-3.957,7.333,7.333,0,0,1,2.827-2.7,8.851,8.851,0,0,1,7.983-.055,6.922,6.922,0,0,1,2.772,2.647,7.954,7.954,0,0,1,1.02,4.123q0,.248-.027.565t-.055.593H738.54v-2.51h9.79l-1.655.745a4.126,4.126,0,0,0-.469-2.013,3.427,3.427,0,0,0-1.3-1.337A3.766,3.766,0,0,0,742.98,33a3.838,3.838,0,0,0-1.944.483,3.367,3.367,0,0,0-1.31,1.351,4.261,4.261,0,0,0-.469,2.054v.662a4.17,4.17,0,0,0,.538,2.137,3.5,3.5,0,0,0,1.517,1.406,5.147,5.147,0,0,0,2.3.483,5.576,5.576,0,0,0,2.082-.358,5.064,5.064,0,0,0,1.641-1.075l2.289,2.482a6.67,6.67,0,0,1-2.565,1.779,9.489,9.489,0,0,1-3.557.62" transform="translate(-601.488 -24.342)" fill="#000000"/>
    <path class="color2" d="M836.877,44.8V29.969h4.109V34.16l-.579-1.214a4.767,4.767,0,0,1,2.123-2.385,7.221,7.221,0,0,1,3.557-.813v3.971q-.276-.027-.5-.041c-.147-.009-.3-.014-.469-.014a3.657,3.657,0,0,0-3.943,4.136v7Z" transform="translate(-684.823 -24.343)" fill="#000000"/>
    <path class="color2" d="M903.322,45.024a9.548,9.548,0,0,1-4.454-.993,7.314,7.314,0,0,1-2.964-2.716,7.409,7.409,0,0,1-1.048-3.929,7.542,7.542,0,0,1,1.034-3.957,7.334,7.334,0,0,1,2.827-2.7,8.851,8.851,0,0,1,7.983-.055,6.923,6.923,0,0,1,2.772,2.647,7.954,7.954,0,0,1,1.02,4.123q0,.248-.027.565t-.055.593H898.358v-2.51h9.789l-1.655.745a4.126,4.126,0,0,0-.469-2.013,3.427,3.427,0,0,0-1.3-1.337A3.766,3.766,0,0,0,902.8,33a3.838,3.838,0,0,0-1.944.483,3.367,3.367,0,0,0-1.31,1.351,4.261,4.261,0,0,0-.469,2.054v.662a4.169,4.169,0,0,0,.538,2.137,3.505,3.505,0,0,0,1.517,1.406,5.148,5.148,0,0,0,2.3.483,5.575,5.575,0,0,0,2.082-.358,5.064,5.064,0,0,0,1.641-1.075l2.289,2.482a6.671,6.671,0,0,1-2.565,1.779,9.489,9.489,0,0,1-3.557.62" transform="translate(-732.268 -24.342)" fill="#000000"/>
    <path class="color2" d="M998.346,20.682a7.537,7.537,0,0,1-3.778-.951,6.976,6.976,0,0,1-2.661-2.661,7.964,7.964,0,0,1-.979-4.026,8.023,8.023,0,0,1,.979-4.054,6.881,6.881,0,0,1,2.661-2.647,7.628,7.628,0,0,1,3.778-.938,6.351,6.351,0,0,1,3.281.827,5.439,5.439,0,0,1,2.178,2.509,10.356,10.356,0,0,1,.772,4.3,10.711,10.711,0,0,1-.745,4.288,5.3,5.3,0,0,1-2.137,2.523,6.445,6.445,0,0,1-3.35.827m.745-3.53a3.721,3.721,0,0,0,1.9-.5,3.63,3.63,0,0,0,1.365-1.42,4.468,4.468,0,0,0,.51-2.192,4.45,4.45,0,0,0-.51-2.206,3.656,3.656,0,0,0-1.365-1.406,3.719,3.719,0,0,0-1.9-.5,3.771,3.771,0,0,0-1.93.5,3.65,3.65,0,0,0-1.365,1.406,4.444,4.444,0,0,0-.51,2.206,4.462,4.462,0,0,0,.51,2.192,3.624,3.624,0,0,0,1.365,1.42,3.773,3.773,0,0,0,1.93.5m3.888,3.309V17.428l.083-4.412-.276-4.385V0h4.3V20.461Z" transform="translate(-810.885)" fill="#000000"/>
    <path class="color2" d="M1144.671,20.461V0h4.3V8.631l-.276,4.385.083,4.412v3.033Zm8.769.221a6.521,6.521,0,0,1-3.364-.827,5.279,5.279,0,0,1-2.151-2.523,10.709,10.709,0,0,1-.744-4.288,10.2,10.2,0,0,1,.786-4.3,5.514,5.514,0,0,1,2.192-2.509,6.351,6.351,0,0,1,3.281-.827,7.553,7.553,0,0,1,3.764.938,6.914,6.914,0,0,1,2.647,2.647,8.026,8.026,0,0,1,.979,4.054,7.967,7.967,0,0,1-.979,4.026,7.011,7.011,0,0,1-2.647,2.661,7.464,7.464,0,0,1-3.764.951m-.745-3.53a3.7,3.7,0,0,0,1.917-.5,3.66,3.66,0,0,0,1.351-1.42,4.468,4.468,0,0,0,.51-2.192,4.45,4.45,0,0,0-.51-2.206,3.606,3.606,0,0,0-3.268-1.9,3.772,3.772,0,0,0-1.93.5,3.555,3.555,0,0,0-1.351,1.406,4.55,4.55,0,0,0-.5,2.206,4.569,4.569,0,0,0,.5,2.192,3.53,3.53,0,0,0,1.351,1.42,3.772,3.772,0,0,0,1.93.5" transform="translate(-936.694)" fill="#000000"/>
    <path class="color2" d="M1238.807,51.368a7.54,7.54,0,0,1-2.289-.358,5.054,5.054,0,0,1-1.847-.993l1.572-3.061a3.7,3.7,0,0,0,1.144.69,3.567,3.567,0,0,0,1.282.248,2.264,2.264,0,0,0,1.448-.427,3.721,3.721,0,0,0,.979-1.42l.772-1.82.331-.469,5.322-12.8h4.136l-6.7,15.746a9.353,9.353,0,0,1-1.641,2.813,5.2,5.2,0,0,1-2.041,1.434,7.06,7.06,0,0,1-2.468.414m2.537-4.991-6.618-15.415h4.44l5.129,12.409Z" transform="translate(-1010.341 -25.336)" fill="#000000"/>
    <path class="color2" d="M1335.39,35.249a2.622,2.622,0,0,1-1.889-.758,2.583,2.583,0,0,1-.786-1.944,2.5,2.5,0,0,1,.786-1.917,2.824,2.824,0,0,1,3.792,0,2.518,2.518,0,0,1,.772,1.917,2.616,2.616,0,0,1-2.675,2.7m0,9.9a2.622,2.622,0,0,1-1.889-.758,2.583,2.583,0,0,1-.786-1.944,2.5,2.5,0,0,1,.786-1.916,2.824,2.824,0,0,1,3.792,0,2.518,2.518,0,0,1,.772,1.916,2.616,2.616,0,0,1-2.675,2.7" transform="translate(-1090.572 -24.467)" fill="#000000"/>
    <path class="color2" d="M5.2,742.93V723.1h8.157a10.929,10.929,0,0,1,4.518.85,6.553,6.553,0,0,1,2.9,2.436,6.815,6.815,0,0,1,1.02,3.767,6.744,6.744,0,0,1-1.02,3.753,6.494,6.494,0,0,1-2.9,2.407,11.088,11.088,0,0,1-4.518.836H7.237l1.643-1.671v7.449Zm3.682-7.053-1.643-1.756h5.948a5.537,5.537,0,0,0,3.668-1.048,3.623,3.623,0,0,0,1.232-2.917,3.572,3.572,0,0,0-1.232-2.917,5.646,5.646,0,0,0-3.668-1.02H7.237l1.643-1.813Zm9.29,7.053-5.013-7.194h3.937l5.042,7.194Z" transform="translate(-4.254 -591.721)" fill="#000000"/>
    <path class="color2" d="M121.9,763.539a9.215,9.215,0,0,1-4.4-1.005,7.279,7.279,0,0,1-2.917-2.762,7.719,7.719,0,0,1-1.034-3.994,7.871,7.871,0,0,1,1.005-4.008,7.216,7.216,0,0,1,2.776-2.733,8.12,8.12,0,0,1,4.036-.991,7.952,7.952,0,0,1,3.937.963,6.976,6.976,0,0,1,2.719,2.719,8.276,8.276,0,0,1,.991,4.135q0,.227-.014.51t-.043.538h-12.6v-2.351H127.08l-1.388.737a4.354,4.354,0,0,0-.538-2.294,4.149,4.149,0,0,0-1.544-1.558,4.409,4.409,0,0,0-2.252-.567,4.465,4.465,0,0,0-2.28.567,4.016,4.016,0,0,0-1.529,1.572,4.836,4.836,0,0,0-.552,2.365v.567a4.618,4.618,0,0,0,.623,2.408,4.151,4.151,0,0,0,1.756,1.615,5.746,5.746,0,0,0,2.606.566,6.281,6.281,0,0,0,2.294-.4,4.885,4.885,0,0,0,1.813-1.246l1.9,2.181a6.666,6.666,0,0,1-2.563,1.827,9.175,9.175,0,0,1-3.526.637" transform="translate(-92.912 -612.132)" fill="#000000"/>
    <path class="color2" d="M217.857,763.539a7.118,7.118,0,0,1-2.974-.581,4.591,4.591,0,0,1-1.968-1.614,4.094,4.094,0,0,1-.694-2.337,4.386,4.386,0,0,1,.609-2.294,4.1,4.1,0,0,1,2-1.614,9.488,9.488,0,0,1,3.682-.595h4.39v2.351h-4.135a3.689,3.689,0,0,0-2.436.581,1.878,1.878,0,0,0-.623,1.43,1.805,1.805,0,0,0,.765,1.529,3.5,3.5,0,0,0,2.124.567,4.6,4.6,0,0,0,2.337-.595,3.372,3.372,0,0,0,1.487-1.756l.595,2.124a3.933,3.933,0,0,1-1.827,2.068,6.752,6.752,0,0,1-3.328.736m4.759-.2v-3.059l-.2-.652v-5.353a3.134,3.134,0,0,0-.935-2.422,4.052,4.052,0,0,0-2.832-.864,8.14,8.14,0,0,0-2.507.4,6.172,6.172,0,0,0-2.082,1.1l-1.388-2.578a8.392,8.392,0,0,1,2.9-1.4,13.024,13.024,0,0,1,3.5-.468,7.483,7.483,0,0,1,5.084,1.572,6.117,6.117,0,0,1,1.8,4.858v8.865Z" transform="translate(-173.662 -612.132)" fill="#000000"/>
    <rect class="color2" transform="translate(57.394 130.192)" fill="#000000"/>
    <path class="color2" d="M363.672,716.128a2.231,2.231,0,0,1-1.628-.623,2.1,2.1,0,0,1,0-3.016,2.261,2.261,0,0,1,1.628-.609,2.326,2.326,0,0,1,1.629.581,1.89,1.89,0,0,1,.637,1.459,2.162,2.162,0,0,1-.623,1.572,2.194,2.194,0,0,1-1.643.637m-1.784,2.493h3.541v15.125h-3.541Z" transform="translate(-295.742 -582.536)" fill="#000000"/>
    <path class="color2" d="M401.156,734.042H411.24v2.832H401.156Zm7.7,15.21a5.38,5.38,0,0,1-3.852-1.289,5.005,5.005,0,0,1-1.36-3.81V730.586h3.54v13.482a2.364,2.364,0,0,0,.552,1.671,2,2,0,0,0,1.544.595,3.111,3.111,0,0,0,1.983-.623l.991,2.521a4.159,4.159,0,0,1-1.529.765,6.875,6.875,0,0,1-1.869.255" transform="translate(-328.269 -597.844)" fill="#000000"/>
    <path class="color2" d="M468.5,769.8a6.961,6.961,0,0,1-2.209-.368,5.244,5.244,0,0,1-1.841-1.02l1.416-2.606a4.283,4.283,0,0,0,1.218.765,3.585,3.585,0,0,0,1.388.283,2.4,2.4,0,0,0,1.558-.482,4.363,4.363,0,0,0,1.1-1.614l.878-1.983.283-.425,5.722-13.369h3.4l-7.081,16.343a9.882,9.882,0,0,1-1.572,2.691,4.783,4.783,0,0,1-1.926,1.388,6.637,6.637,0,0,1-2.337.4m3.116-5.155-6.826-15.663h3.682l5.552,13.057Z" transform="translate(-380.062 -612.897)" fill="#000000"/>
    <path class="color2" d="M618.861,716.128a2.232,2.232,0,0,1-1.629-.623,2.1,2.1,0,0,1,0-3.016,2.262,2.262,0,0,1,1.629-.609,2.327,2.327,0,0,1,1.629.581,1.891,1.891,0,0,1,.637,1.459,2.163,2.163,0,0,1-.623,1.572,2.194,2.194,0,0,1-1.643.637m-1.784,2.493h3.541v15.125h-3.541Z" transform="translate(-504.565 -582.536)" fill="#000000"/>
    <path class="color2" d="M664.306,763.539a13.243,13.243,0,0,1-3.64-.5,9.352,9.352,0,0,1-2.762-1.2l1.36-2.691a9.652,9.652,0,0,0,2.436,1.076,9.811,9.811,0,0,0,2.832.425,4.88,4.88,0,0,0,2.422-.453,1.374,1.374,0,0,0,.751-1.218,1.057,1.057,0,0,0-.51-.949,3.969,3.969,0,0,0-1.331-.5q-.822-.17-1.827-.312t-2.011-.382a6.922,6.922,0,0,1-1.827-.708,3.779,3.779,0,0,1-1.331-1.26,3.827,3.827,0,0,1-.51-2.1,3.976,3.976,0,0,1,.821-2.507,5.243,5.243,0,0,1,2.308-1.643,9.689,9.689,0,0,1,3.526-.581,14.453,14.453,0,0,1,3.087.34,8.365,8.365,0,0,1,2.578.963l-1.36,2.691a7.185,7.185,0,0,0-2.167-.892,10.042,10.042,0,0,0-2.167-.241,4.662,4.662,0,0,0-2.393.481,1.411,1.411,0,0,0-.779,1.218,1.144,1.144,0,0,0,.51,1.02,4.15,4.15,0,0,0,1.331.538,16.831,16.831,0,0,0,1.827.326,16.18,16.18,0,0,1,2,.382,8.451,8.451,0,0,1,1.827.694,3.527,3.527,0,0,1,1.345,1.232,3.77,3.77,0,0,1,.51,2.068,3.835,3.835,0,0,1-.836,2.464,5.376,5.376,0,0,1-2.365,1.629,10.308,10.308,0,0,1-3.654.581" transform="translate(-538.369 -612.132)" fill="#000000"/>
    <path class="color2" d="M796.671,763.539a7.117,7.117,0,0,1-2.974-.581,4.589,4.589,0,0,1-1.969-1.614,4.1,4.1,0,0,1-.694-2.337,4.386,4.386,0,0,1,.609-2.294,4.1,4.1,0,0,1,2-1.614,9.487,9.487,0,0,1,3.682-.595h4.39v2.351h-4.135a3.689,3.689,0,0,0-2.436.581,1.878,1.878,0,0,0-.623,1.43,1.8,1.8,0,0,0,.765,1.529,3.5,3.5,0,0,0,2.124.567,4.6,4.6,0,0,0,2.337-.595,3.371,3.371,0,0,0,1.487-1.756l.595,2.124A3.932,3.932,0,0,1,800,762.8a6.752,6.752,0,0,1-3.328.736m4.759-.2v-3.059l-.2-.652v-5.353a3.134,3.134,0,0,0-.935-2.422,4.053,4.053,0,0,0-2.833-.864,8.141,8.141,0,0,0-2.507.4,6.173,6.173,0,0,0-2.082,1.1l-1.388-2.578a8.393,8.393,0,0,1,2.9-1.4,13.023,13.023,0,0,1,3.5-.468,7.483,7.483,0,0,1,5.084,1.572,6.117,6.117,0,0,1,1.8,4.858v8.865Z" transform="translate(-647.31 -612.132)" fill="#000000"/>
    <path class="color2" d="M903.284,748.046a7.22,7.22,0,0,1,3.243.708,5.194,5.194,0,0,1,2.252,2.167,7.6,7.6,0,0,1,.821,3.753v8.667h-3.54v-8.214a4.2,4.2,0,0,0-.949-3,3.493,3.493,0,0,0-2.648-.991,4.649,4.649,0,0,0-2.209.51,3.494,3.494,0,0,0-1.487,1.515,5.454,5.454,0,0,0-.524,2.535v7.648H894.7V748.216h3.371v4.079l-.595-1.246a5.36,5.36,0,0,1,2.308-2.224,7.547,7.547,0,0,1,3.5-.779" transform="translate(-732.142 -612.132)" fill="#000000"/>
    <path class="color2" d="M1050.363,716.128a2.231,2.231,0,0,1-1.629-.623,2.1,2.1,0,0,1,0-3.016,2.261,2.261,0,0,1,1.629-.609,2.327,2.327,0,0,1,1.629.581,1.89,1.89,0,0,1,.637,1.459,2.162,2.162,0,0,1-.623,1.572,2.193,2.193,0,0,1-1.643.637m-1.784,2.493h3.54v15.125h-3.54Z" transform="translate(-857.666 -582.536)" fill="#000000"/>
    <rect class="color2" transform="translate(199.664 130.192)" fill="#000000"/>
    <rect class="color2" transform="translate(208.416 130.192)" fill="#000000"/>
    <path class="color2" d="M1201.143,764.3a7.626,7.626,0,0,1-3.4-.722,5.181,5.181,0,0,1-2.294-2.209,7.688,7.688,0,0,1-.822-3.753v-8.639h3.541v8.157a4.38,4.38,0,0,0,.921,3.045,3.372,3.372,0,0,0,2.62,1.005,4.4,4.4,0,0,0,2.167-.51,3.548,3.548,0,0,0,1.445-1.529,5.476,5.476,0,0,0,.524-2.521v-7.648h3.541v15.125h-3.371v-4.079l.595,1.246a5.207,5.207,0,0,1-2.238,2.252,6.8,6.8,0,0,1-3.229.779" transform="translate(-977.574 -612.897)" fill="#000000"/>
    <path class="color2" d="M1301.424,763.539a13.243,13.243,0,0,1-3.64-.5,9.352,9.352,0,0,1-2.762-1.2l1.36-2.691a9.656,9.656,0,0,0,2.436,1.076,9.811,9.811,0,0,0,2.832.425,4.88,4.88,0,0,0,2.422-.453,1.374,1.374,0,0,0,.751-1.218,1.057,1.057,0,0,0-.51-.949,3.969,3.969,0,0,0-1.331-.5q-.822-.17-1.827-.312t-2.011-.382a6.918,6.918,0,0,1-1.827-.708,3.778,3.778,0,0,1-1.331-1.26,3.825,3.825,0,0,1-.51-2.1,3.976,3.976,0,0,1,.821-2.507,5.244,5.244,0,0,1,2.309-1.643,9.687,9.687,0,0,1,3.526-.581,14.454,14.454,0,0,1,3.087.34,8.366,8.366,0,0,1,2.578.963l-1.36,2.691a7.185,7.185,0,0,0-2.167-.892,10.041,10.041,0,0,0-2.167-.241,4.662,4.662,0,0,0-2.393.481,1.411,1.411,0,0,0-.779,1.218,1.144,1.144,0,0,0,.51,1.02,4.153,4.153,0,0,0,1.331.538,16.831,16.831,0,0,0,1.827.326,16.186,16.186,0,0,1,2,.382,8.45,8.45,0,0,1,1.827.694,3.528,3.528,0,0,1,1.345,1.232,3.77,3.77,0,0,1,.51,2.068,3.835,3.835,0,0,1-.836,2.464,5.377,5.377,0,0,1-2.365,1.629,10.307,10.307,0,0,1-3.654.581" transform="translate(-1059.728 -612.132)" fill="#000000"/>
    <path class="color2" d="M1387.551,716.128a2.232,2.232,0,0,1-1.629-.623,2.1,2.1,0,0,1,0-3.016,2.262,2.262,0,0,1,1.629-.609,2.327,2.327,0,0,1,1.629.581,1.89,1.89,0,0,1,.637,1.459,2.163,2.163,0,0,1-.623,1.572,2.194,2.194,0,0,1-1.643.637m-1.784,2.493h3.541v15.125h-3.541Z" transform="translate(-1133.59 -582.536)" fill="#000000"/>
    <path class="color2" d="M1437.289,763.539a8.376,8.376,0,0,1-4.135-1.005,7.505,7.505,0,0,1-2.861-2.761,8.163,8.163,0,0,1,0-8,7.44,7.44,0,0,1,2.861-2.733,8.475,8.475,0,0,1,4.135-.991,8.619,8.619,0,0,1,4.178.991,7.351,7.351,0,0,1,2.861,2.719,8.287,8.287,0,0,1,0,8.016,7.381,7.381,0,0,1-2.861,2.761,8.517,8.517,0,0,1-4.178,1.005m0-3.031a4.7,4.7,0,0,0,2.323-.567,4,4,0,0,0,1.6-1.643,5.792,5.792,0,0,0,0-5.056,4.029,4.029,0,0,0-1.6-1.629,4.957,4.957,0,0,0-4.6,0,4.149,4.149,0,0,0-1.6,1.629,5.668,5.668,0,0,0,0,5.056,4.121,4.121,0,0,0,1.6,1.643,4.557,4.557,0,0,0,2.28.567" transform="translate(-1169.563 -612.132)" fill="#000000"/>
    <path class="color2" d="M1548.353,748.046a7.219,7.219,0,0,1,3.243.708,5.193,5.193,0,0,1,2.252,2.167,7.6,7.6,0,0,1,.822,3.753v8.667h-3.541v-8.214a4.2,4.2,0,0,0-.949-3,3.493,3.493,0,0,0-2.648-.991,4.65,4.65,0,0,0-2.209.51,3.494,3.494,0,0,0-1.487,1.515,5.453,5.453,0,0,0-.524,2.535v7.648h-3.54V748.216h3.37v4.079l-.595-1.246a5.36,5.36,0,0,1,2.308-2.224,7.547,7.547,0,0,1,3.5-.779" transform="translate(-1260.007 -612.132)" fill="#000000"/>
    <path class="color2" d="M1645.449,812.143a2.3,2.3,0,0,1-2.323-2.351,2.237,2.237,0,0,1,.68-1.714,2.436,2.436,0,0,1,3.286,0,2.464,2.464,0,0,1,0,3.4,2.262,2.262,0,0,1-1.643.666" transform="translate(-1344.583 -660.736)" fill="#000000"/>
    <path class="color2" d="M1686.6,812.143a2.3,2.3,0,0,1-2.323-2.351,2.237,2.237,0,0,1,.68-1.714,2.436,2.436,0,0,1,3.286,0,2.464,2.464,0,0,1,0,3.4,2.262,2.262,0,0,1-1.643.666" transform="translate(-1378.26 -660.736)" fill="#000000"/>
    <path class="color2" d="M1727.756,812.143a2.3,2.3,0,0,1-2.323-2.351,2.238,2.238,0,0,1,.68-1.714,2.436,2.436,0,0,1,3.286,0,2.464,2.464,0,0,1,0,3.4,2.262,2.262,0,0,1-1.643.666" transform="translate(-1411.936 -660.736)" fill="#000000"/>
  </g>
</svg>
