<svg xmlns="http://www.w3.org/2000/svg" width="34" height="47.714" viewBox="0 0 34 47.714" class="w-4 h-auto max-w-[120px]">
  <g id="icono_cerrar_sesion" data-name="icono cerrar sesion" transform="translate(-411 -3525.949)">
    <path id="Trazado_988" data-name="Trazado 988" d="M385.143,189.8h-7.619a1.524,1.524,0,0,1,0-3.048h7.619a3.051,3.051,0,0,0,3.048-3.048V150.179a3.052,3.052,0,0,0-3.048-3.048h-7.619a1.524,1.524,0,0,1,0-3.048h7.619a6.1,6.1,0,0,1,6.1,6.1V183.7a6.1,6.1,0,0,1-6.1,6.1" transform="translate(52.762 3382.865)"/>
    <path id="Trazado_988_-_Contorno" data-name="Trazado 988 - Contorno" d="M385.143,190.8h-7.619a2.524,2.524,0,0,1,0-5.048h7.619a2.05,2.05,0,0,0,2.048-2.048V150.179a2.05,2.05,0,0,0-2.048-2.048h-7.619a2.524,2.524,0,0,1,0-5.048h7.619a7.1,7.1,0,0,1,7.1,7.1V183.7A7.1,7.1,0,0,1,385.143,190.8Zm-7.619-3.048a.524.524,0,0,0,0,1.048h7.619a5.1,5.1,0,0,0,5.1-5.1V150.179a5.1,5.1,0,0,0-5.1-5.1h-7.619a.524.524,0,0,0,0,1.048h7.619a4.052,4.052,0,0,1,4.048,4.048V183.7a4.052,4.052,0,0,1-4.048,4.048Z" transform="translate(52.762 3382.865)" fill="#0d0d0d"/>
    <path id="Trazado_989" data-name="Trazado 989" d="M377.19,175.465a1.52,1.52,0,0,1-1.077-.446l-10.666-10.667a1.522,1.522,0,0,1,0-2.155l10.666-10.667a1.524,1.524,0,1,1,2.155,2.155l-9.589,9.589,9.589,9.589a1.524,1.524,0,0,1-1.077,2.6" transform="translate(47 3386.531)"/>
    <path id="Trazado_989_-_Contorno" data-name="Trazado 989 - Contorno" d="M377.19,176.465a2.508,2.508,0,0,1-1.784-.739L364.74,165.059a2.522,2.522,0,0,1,0-3.569l10.666-10.667a2.524,2.524,0,1,1,3.569,3.569l-8.882,8.882,8.882,8.882a2.524,2.524,0,0,1-1.784,4.308Zm0-24.381a.52.52,0,0,0-.37.154L366.154,162.9a.522.522,0,0,0,0,.74l10.666,10.667a.524.524,0,1,0,.74-.74l-10.3-10.3,10.3-10.3a.524.524,0,0,0-.37-.894Z" transform="translate(47 3386.531)" fill="#0d0d0d"/>
    <path id="Trazado_990" data-name="Trazado 990" d="M387.333,161.132H367.524a1.524,1.524,0,1,1,0-3.048h19.809a1.524,1.524,0,1,1,0,3.048" transform="translate(47.524 3390.198)"/>
    <path id="Trazado_990_-_Contorno" data-name="Trazado 990 - Contorno" d="M387.333,162.132H367.524a2.524,2.524,0,1,1,0-5.048h19.809a2.524,2.524,0,1,1,0,5.048Zm-19.809-3.048a.524.524,0,1,0,0,1.048h19.809a.524.524,0,1,0,0-1.048Z" transform="translate(47.524 3390.198)" fill="#0d0d0d"/>
  </g>
</svg>
